<?xml version="1.0" encoding="UTF-8" ?>
<!DOCTYPE svg PUBLIC "-//W3C//DTD SVG 1.1//EN" "http://www.w3.org/Graphics/SVG/1.1/DTD/svg11.dtd">
<svg width="200pt" height="120pt" viewBox="0 0 200 120" version="1.1" xmlns="http://www.w3.org/2000/svg">
<g id="#ffffffff">
<path fill="#ffffff" opacity="1.00" d=" M 95.35 21.29 C 102.30 22.02 109.22 23.10 116.15 24.10 C 116.11 24.87 116.02 26.40 115.98 27.17 C 115.52 29.73 115.17 32.30 114.89 34.88 C 114.51 38.25 113.92 41.59 113.32 44.93 C 106.33 44.13 99.36 43.16 92.41 42.12 L 92.40 41.20 C 92.97 36.53 93.86 31.91 94.42 27.25 C 94.71 25.25 95.04 23.27 95.35 21.29 M 103.66 35.78 C 102.56 34.63 101.96 32.50 100.35 32.11 C 98.40 33.19 96.50 34.41 94.84 35.91 C 94.08 37.38 94.19 39.09 94.05 40.69 C 100.01 41.46 105.94 42.39 111.90 43.13 C 112.22 38.90 113.71 34.75 113.40 30.50 C 110.14 32.23 107.10 34.41 103.66 35.78 Z" />
</g>
<g id="#d0d0d0ff">
<path fill="#d0d0d0" opacity="1.00" d=" M 91.33 16.32 C 95.37 16.03 99.34 17.17 103.33 17.62 C 109.41 18.65 115.62 18.95 121.60 20.47 C 121.34 23.04 120.95 25.60 120.36 28.11 C 120.27 26.99 120.17 25.88 120.06 24.77 C 119.08 24.81 118.11 24.86 117.13 24.90 C 116.73 25.65 116.35 26.41 115.98 27.17 C 116.02 26.40 116.11 24.87 116.15 24.10 C 109.22 23.10 102.30 22.02 95.35 21.29 C 95.04 23.27 94.71 25.25 94.42 27.25 C 94.30 25.96 94.17 24.67 94.03 23.39 C 93.42 23.77 92.81 24.15 92.20 24.53 C 91.80 22.86 91.38 21.19 91.05 19.50 C 91.06 18.43 91.15 17.37 91.33 16.32 Z" />
</g>
<g id="#c4c4c4ff">
<path fill="#c4c4c4" opacity="1.00" d=" M 91.05 19.50 C 91.38 21.19 91.80 22.86 92.20 24.53 C 92.81 24.15 93.42 23.77 94.03 23.39 C 94.17 24.67 94.30 25.96 94.42 27.25 C 93.86 31.91 92.97 36.53 92.40 41.20 C 92.28 39.63 92.11 38.07 91.96 36.50 C 91.38 36.80 90.80 37.10 90.23 37.40 C 89.79 36.12 89.34 34.83 88.94 33.53 C 89.35 28.82 90.33 24.17 91.05 19.50 Z" />
</g>
<g id="#c2c2c2ff">
<path fill="#c2c2c2" opacity="1.00" d=" M 117.13 24.90 C 118.11 24.86 119.08 24.81 120.06 24.77 C 120.17 25.88 120.27 26.99 120.36 28.11 C 119.87 32.76 119.17 37.40 118.41 42.02 C 118.68 39.06 116.78 36.85 114.89 34.88 C 115.17 32.30 115.52 29.73 115.98 27.17 C 116.35 26.41 116.73 25.65 117.13 24.90 Z" />
</g>
<g id="#bababaff">
<path fill="#bababa" opacity="1.00" d=" M 103.66 35.78 C 107.10 34.41 110.14 32.23 113.40 30.50 C 113.71 34.75 112.22 38.90 111.90 43.13 C 105.94 42.39 100.01 41.46 94.05 40.69 C 94.19 39.09 94.08 37.38 94.84 35.91 C 96.50 34.41 98.40 33.19 100.35 32.11 C 101.96 32.50 102.56 34.63 103.66 35.78 Z" />
</g>
<g id="#dfdfdfff">
<path fill="#dfdfdf" opacity="1.00" d=" M 76.38 34.85 C 79.60 32.90 83.43 32.38 87.06 31.62 C 86.41 37.42 85.36 43.16 84.58 48.94 C 84.54 49.88 84.09 51.21 85.19 51.76 C 89.33 52.82 93.63 53.05 97.86 53.52 C 97.82 53.79 97.73 54.33 97.69 54.60 C 93.13 55.91 88.60 57.39 83.96 58.42 C 82.51 58.02 82.47 56.25 81.95 55.11 C 80.17 48.33 77.93 41.68 76.38 34.85 Z" />
</g>
<g id="#b0b0b0ff">
<path fill="#b0b0b0" opacity="1.00" d=" M 88.94 33.53 C 89.34 34.83 89.79 36.12 90.23 37.40 C 90.80 37.10 91.38 36.80 91.96 36.50 C 92.11 38.07 92.28 39.63 92.40 41.20 L 92.41 42.12 C 99.36 43.16 106.33 44.13 113.32 44.93 C 113.92 41.59 114.51 38.25 114.89 34.88 C 116.78 36.85 118.68 39.06 118.41 42.02 C 117.48 46.05 117.98 50.53 116.02 54.23 C 106.30 52.71 96.53 51.54 86.82 50.00 C 86.88 44.45 88.40 39.04 88.94 33.53 Z" />
</g>
<g id="#646464ff">
<path fill="#646464" opacity="1.00" d=" M 63.63 72.35 C 64.11 72.36 65.06 72.36 65.54 72.36 C 67.30 75.07 68.71 77.98 70.38 80.74 C 70.47 77.99 69.79 75.16 70.34 72.45 C 70.69 72.40 71.40 72.29 71.75 72.24 C 71.78 75.98 71.88 79.73 71.54 83.46 C 71.16 83.39 70.39 83.25 70.00 83.18 C 68.24 80.44 66.88 77.48 65.28 74.65 C 65.14 77.66 65.31 80.67 65.18 83.68 C 64.80 83.46 64.04 83.03 63.66 82.82 C 63.55 79.33 63.68 75.84 63.63 72.35 Z" />
<path fill="#646464" opacity="1.00" d=" M 94.76 91.97 C 94.81 90.66 94.40 88.99 96.04 88.47 C 97.91 91.69 94.57 97.01 99.02 98.77 C 102.72 96.90 100.68 92.35 101.27 89.09 C 101.66 89.01 102.43 88.84 102.82 88.76 C 102.85 91.47 103.01 94.20 102.74 96.91 C 102.11 99.85 98.23 100.65 96.04 98.92 C 94.44 96.95 94.81 94.32 94.76 91.97 Z" />
</g>
<g id="#5a5a5aff">
<path fill="#5a5a5a" opacity="1.00" d=" M 90.52 72.39 C 90.97 72.38 91.86 72.38 92.30 72.37 C 92.13 75.97 92.55 79.60 92.12 83.17 L 91.00 83.42 C 89.92 80.08 90.88 76.01 90.52 72.39 Z" />
<path fill="#5a5a5a" opacity="1.00" d=" M 74.38 89.17 C 76.36 89.14 78.33 89.09 80.31 89.03 L 80.36 90.52 C 78.95 90.50 77.55 90.49 76.14 90.47 C 76.13 91.56 76.12 92.65 76.11 93.74 C 77.46 93.75 78.81 93.77 80.17 93.78 L 80.14 95.20 C 78.80 95.22 77.47 95.23 76.13 95.25 C 75.86 96.93 77.32 100.59 74.38 99.80 C 74.46 96.26 74.47 92.71 74.38 89.17 Z" />
<path fill="#5a5a5a" opacity="1.00" d=" M 106.48 88.96 C 107.58 88.69 108.39 89.03 108.92 89.98 C 110.49 92.51 111.79 95.18 113.30 97.74 C 113.06 94.73 112.80 91.71 112.90 88.68 C 113.30 88.84 114.10 89.17 114.50 89.33 C 114.57 92.83 114.44 96.34 114.52 99.85 C 110.58 99.73 110.88 93.82 107.99 92.04 C 107.41 94.38 108.63 97.20 107.90 99.71 C 107.52 99.74 106.77 99.79 106.40 99.82 C 106.45 96.20 106.44 92.58 106.48 88.96 Z" />
</g>
<g id="#555555ff">
<path fill="#555555" opacity="1.00" d=" M 96.38 72.41 C 96.90 72.41 97.95 72.41 98.47 72.41 C 99.57 75.15 100.25 78.02 100.99 80.87 C 101.88 78.03 102.84 75.22 103.72 72.38 C 104.55 72.48 105.37 72.59 106.20 72.70 C 106.21 76.24 106.41 79.77 106.62 83.29 L 104.84 83.23 C 104.82 80.22 104.90 77.19 104.40 74.21 C 103.14 76.91 102.82 79.92 101.71 82.68 C 101.32 82.75 100.55 82.88 100.16 82.95 C 99.17 80.26 99.24 77.11 97.61 74.70 C 97.24 77.61 97.29 80.54 97.20 83.47 C 96.79 83.36 95.98 83.15 95.57 83.04 C 95.55 79.48 96.17 75.96 96.38 72.41 Z" />
<path fill="#555555" opacity="1.00" d=" M 111.86 72.49 C 112.63 72.48 113.39 72.47 114.16 72.46 C 115.27 76.09 116.32 79.75 117.63 83.32 C 115.17 84.37 115.53 81.51 114.82 80.26 C 113.59 80.25 112.36 80.24 111.14 80.25 C 110.57 81.52 110.68 84.05 108.45 83.39 C 109.68 79.79 110.76 76.14 111.86 72.49 M 111.38 79.23 C 112.19 79.23 113.80 79.24 114.61 79.24 C 114.18 77.43 113.66 75.63 112.98 73.90 C 112.28 75.62 111.79 77.42 111.38 79.23 Z" />
<path fill="#555555" opacity="1.00" d=" M 76.44 73.35 C 79.17 70.97 83.97 73.40 83.80 76.98 C 84.50 80.23 82.06 82.96 78.97 83.49 C 74.16 82.89 72.61 76.10 76.44 73.35 M 79.92 81.73 C 83.55 80.16 82.77 74.34 78.99 73.40 C 74.84 74.50 75.06 82.63 79.92 81.73 Z" />
<path fill="#555555" opacity="1.00" d=" M 85.32 89.53 C 89.65 87.27 94.01 92.79 91.75 96.72 C 90.86 99.71 86.58 100.80 84.35 98.63 C 81.49 96.31 82.08 91.22 85.32 89.53 M 85.37 91.37 C 83.65 93.25 83.97 96.77 86.15 98.23 C 88.75 99.45 90.99 96.36 90.52 93.96 C 90.79 91.40 87.19 88.85 85.37 91.37 Z" />
</g>
<g id="#575757ff">
<path fill="#575757" opacity="1.00" d=" M 121.47 73.51 C 123.17 72.03 125.56 72.54 127.61 72.59 C 127.55 73.04 127.45 73.93 127.39 74.38 C 124.74 72.84 120.48 74.60 121.08 78.05 C 120.70 81.06 123.98 82.31 126.44 81.70 C 126.48 81.13 126.55 79.99 126.58 79.42 C 125.86 79.04 124.41 78.29 123.68 77.91 C 124.80 77.82 127.04 77.64 128.16 77.55 C 127.98 79.15 128.51 80.98 127.87 82.47 C 126.10 83.21 124.03 83.63 122.24 82.71 C 118.47 81.44 118.28 75.54 121.47 73.51 Z" />
<path fill="#575757" opacity="1.00" d=" M 117.54 89.31 C 119.89 89.33 122.68 88.54 124.65 90.24 C 127.12 92.31 126.74 96.44 124.46 98.49 C 122.55 100.15 119.86 99.65 117.55 99.62 C 117.62 96.19 117.63 92.75 117.54 89.31 M 119.25 90.38 C 119.32 93.10 119.32 95.83 119.30 98.57 C 122.02 98.92 125.04 96.97 124.56 93.96 C 124.76 91.14 121.62 89.81 119.25 90.38 Z" />
</g>
<g id="#626262ff">
<path fill="#626262" opacity="1.00" d=" M 131.12 72.48 C 133.10 73.00 137.11 70.94 137.39 73.90 C 135.87 73.91 134.34 73.91 132.82 73.91 C 132.81 74.64 132.78 76.12 132.77 76.86 C 134.22 77.14 136.79 76.16 137.15 78.33 C 135.68 78.42 134.21 78.44 132.74 78.49 C 132.75 79.29 132.78 80.89 132.79 81.69 C 134.32 81.69 135.86 81.68 137.39 81.67 C 137.38 82.07 137.36 82.88 137.34 83.28 C 135.29 83.25 133.25 83.24 131.20 83.26 C 131.19 79.66 131.23 76.07 131.12 72.48 Z" />
</g>
</svg>
